# xmcd CD database file
#
# Track frame offsets:
#	150
#	11647
#	25010
#	32521
#	45593
#	60616
#	71209
#	81049
#	95202
#	112151
#	125845
#	134167
#	146406
#	154067
#	163889
#	176059
#
# Disc length: 2538 seconds
#
# Revision: 0
# Processed by: cddbd v1.5.2PL0 Copyright (c) Steve Scherf et al.
# Submitted via: CDex 1.51
#
DISCID=ea09e810
DTITLE=La Boite Vocale - La Boite Vocale
DYEAR=2005
DGENRE=Jazz
TTITLE0=Dream a little dream
TTITLE1=Sympathique
TTITLE2=Deep River
TTITLE3=Come live with me
TTITLE4=Cécile, ma fille
TTITLE5=Java jive
TTITLE6=Le Jazz et la java
TTITLE7=Will you come
TTITLE8=It don't mean a thing
TTITLE9=Les boîtes à musique
TTITLE10=Joshua fit the battle of Jericho
TTITLE11=Money, money, money
TTITLE12=Angel eyes
TTITLE13=Yesterday
TTITLE14=Plenty good room
TTITLE15=Le soleil et la lune
EXTD=YEAR: 2005
EXTT0=
EXTT1=
EXTT2=
EXTT3=
EXTT4=
EXTT5=
EXTT6=
EXTT7=
EXTT8=
EXTT9=
EXTT10=
EXTT11=
EXTT12=
EXTT13=
EXTT14=
EXTT15=
PLAYORDER=
